<mxfile host="Electron" agent="Mozilla/5.0 (X11; Linux x86_64) AppleWebKit/537.36 (KHTML, like Gecko) draw.io/27.0.5 Chrome/134.0.6998.205 Electron/35.3.0 Safari/537.36" version="27.0.5">
  <diagram name="Page-1" id="hSbz8sfhkRv2dt6Nuemm">
    <mxGraphModel dx="1181" dy="688" grid="1" gridSize="10" guides="1" tooltips="1" connect="1" arrows="1" fold="1" page="1" pageScale="1" pageWidth="850" pageHeight="1100" math="0" shadow="0">
      <root>
        <mxCell id="0" />
        <mxCell id="1" parent="0" />
        <mxCell id="dKJm6D22h-IE7gDkArMl-2" value="brakeDiskUncertaintyOne: Uncertainty" style="html=1;whiteSpace=wrap;fillColor=#60a917;fontColor=#ffffff;strokeColor=#2D7600;" parent="1" vertex="1">
          <mxGeometry x="20" y="70" width="160" height="60" as="geometry" />
        </mxCell>
        <mxCell id="dKJm6D22h-IE7gDkArMl-4" value="circleUncertaintyOne: Uncertainty" style="html=1;whiteSpace=wrap;fillColor=#0050ef;fontColor=#ffffff;strokeColor=#001DBC;" parent="1" vertex="1">
          <mxGeometry x="340" y="70" width="160" height="60" as="geometry" />
        </mxCell>
        <mxCell id="dKJm6D22h-IE7gDkArMl-8" value="" style="endArrow=none;startArrow=none;endFill=0;startFill=0;endSize=8;html=1;verticalAlign=bottom;labelBackgroundColor=none;strokeWidth=3;rounded=0;entryX=0;entryY=0.5;entryDx=0;entryDy=0;exitX=1;exitY=0.5;exitDx=0;exitDy=0;" parent="1" source="dKJm6D22h-IE7gDkArMl-2" target="dKJm6D22h-IE7gDkArMl-4" edge="1">
          <mxGeometry width="160" relative="1" as="geometry">
            <mxPoint x="200" y="100" as="sourcePoint" />
            <mxPoint x="320" y="104" as="targetPoint" />
          </mxGeometry>
        </mxCell>
        <mxCell id="dKJm6D22h-IE7gDkArMl-9" value="Corresponding" style="edgeLabel;html=1;align=center;verticalAlign=middle;resizable=0;points=[];" parent="dKJm6D22h-IE7gDkArMl-8" vertex="1" connectable="0">
          <mxGeometry x="0.0048" y="-1" relative="1" as="geometry">
            <mxPoint as="offset" />
          </mxGeometry>
        </mxCell>
        <mxCell id="dKJm6D22h-IE7gDkArMl-12" value="brakeDiskLocationOne: UncertaintyLocation" style="html=1;whiteSpace=wrap;fillColor=#60a917;fontColor=#ffffff;strokeColor=#2D7600;" parent="1" vertex="1">
          <mxGeometry x="20" y="190" width="160" height="60" as="geometry" />
        </mxCell>
        <mxCell id="dKJm6D22h-IE7gDkArMl-13" value="" style="endArrow=none;startArrow=none;endFill=0;startFill=0;endSize=8;html=1;verticalAlign=bottom;labelBackgroundColor=none;strokeWidth=3;rounded=0;exitX=0.5;exitY=1;exitDx=0;exitDy=0;entryX=0.5;entryY=0;entryDx=0;entryDy=0;" parent="1" source="dKJm6D22h-IE7gDkArMl-2" target="dKJm6D22h-IE7gDkArMl-12" edge="1">
          <mxGeometry width="160" relative="1" as="geometry">
            <mxPoint x="120" y="150" as="sourcePoint" />
            <mxPoint x="120" y="170" as="targetPoint" />
          </mxGeometry>
        </mxCell>
        <mxCell id="dKJm6D22h-IE7gDkArMl-14" value="uncertainty Location" style="edgeLabel;html=1;align=center;verticalAlign=middle;resizable=0;points=[];" parent="dKJm6D22h-IE7gDkArMl-13" vertex="1" connectable="0">
          <mxGeometry x="0.0048" y="-1" relative="1" as="geometry">
            <mxPoint as="offset" />
          </mxGeometry>
        </mxCell>
        <mxCell id="dKJm6D22h-IE7gDkArMl-15" value="circleLocationOne: UncertaintyLocation" style="html=1;whiteSpace=wrap;fillColor=#0050ef;fontColor=#ffffff;strokeColor=#001DBC;" parent="1" vertex="1">
          <mxGeometry x="340" y="190" width="160" height="60" as="geometry" />
        </mxCell>
        <mxCell id="dKJm6D22h-IE7gDkArMl-16" value="" style="endArrow=none;startArrow=none;endFill=0;startFill=0;endSize=8;html=1;verticalAlign=bottom;labelBackgroundColor=none;strokeWidth=3;rounded=0;exitX=0.5;exitY=1;exitDx=0;exitDy=0;entryX=0.5;entryY=0;entryDx=0;entryDy=0;" parent="1" source="dKJm6D22h-IE7gDkArMl-4" target="dKJm6D22h-IE7gDkArMl-15" edge="1">
          <mxGeometry width="160" relative="1" as="geometry">
            <mxPoint x="420" y="140" as="sourcePoint" />
            <mxPoint x="420" y="180" as="targetPoint" />
          </mxGeometry>
        </mxCell>
        <mxCell id="dKJm6D22h-IE7gDkArMl-17" value="uncertainty Location" style="edgeLabel;html=1;align=center;verticalAlign=middle;resizable=0;points=[];" parent="dKJm6D22h-IE7gDkArMl-16" vertex="1" connectable="0">
          <mxGeometry x="0.0048" y="-1" relative="1" as="geometry">
            <mxPoint as="offset" />
          </mxGeometry>
        </mxCell>
        <mxCell id="dKJm6D22h-IE7gDkArMl-18" value="brakeDisk: BrakeDisk" style="html=1;whiteSpace=wrap;" parent="1" vertex="1">
          <mxGeometry x="20" y="310" width="160" height="40" as="geometry" />
        </mxCell>
        <mxCell id="dKJm6D22h-IE7gDkArMl-19" value="" style="endArrow=none;startArrow=none;endFill=0;startFill=0;endSize=8;html=1;verticalAlign=bottom;labelBackgroundColor=none;strokeWidth=3;rounded=0;exitX=0.5;exitY=1;exitDx=0;exitDy=0;entryX=0.5;entryY=0;entryDx=0;entryDy=0;" parent="1" source="dKJm6D22h-IE7gDkArMl-12" target="dKJm6D22h-IE7gDkArMl-18" edge="1">
          <mxGeometry width="160" relative="1" as="geometry">
            <mxPoint x="140" y="250" as="sourcePoint" />
            <mxPoint x="140" y="310" as="targetPoint" />
            <Array as="points">
              <mxPoint x="100" y="300" />
            </Array>
          </mxGeometry>
        </mxCell>
        <mxCell id="dKJm6D22h-IE7gDkArMl-20" value="referencedComponents" style="edgeLabel;html=1;align=center;verticalAlign=middle;resizable=0;points=[];" parent="dKJm6D22h-IE7gDkArMl-19" vertex="1" connectable="0">
          <mxGeometry x="0.0048" y="-1" relative="1" as="geometry">
            <mxPoint x="1" as="offset" />
          </mxGeometry>
        </mxCell>
        <mxCell id="dKJm6D22h-IE7gDkArMl-24" value="" style="endArrow=none;startArrow=none;endFill=0;startFill=0;endSize=8;html=1;verticalAlign=bottom;labelBackgroundColor=none;strokeWidth=3;rounded=0;exitX=0.5;exitY=1;exitDx=0;exitDy=0;entryX=0.5;entryY=0;entryDx=0;entryDy=0;" parent="1" source="dKJm6D22h-IE7gDkArMl-15" target="dKJm6D22h-IE7gDkArMl-26" edge="1">
          <mxGeometry width="160" relative="1" as="geometry">
            <mxPoint x="420" y="260" as="sourcePoint" />
            <mxPoint x="420" y="290" as="targetPoint" />
            <Array as="points">
              <mxPoint x="419.81" y="300" />
            </Array>
          </mxGeometry>
        </mxCell>
        <mxCell id="dKJm6D22h-IE7gDkArMl-25" value="referencedComponents" style="edgeLabel;html=1;align=center;verticalAlign=middle;resizable=0;points=[];" parent="dKJm6D22h-IE7gDkArMl-24" vertex="1" connectable="0">
          <mxGeometry x="0.0048" y="-1" relative="1" as="geometry">
            <mxPoint x="1" as="offset" />
          </mxGeometry>
        </mxCell>
        <mxCell id="dKJm6D22h-IE7gDkArMl-26" value="circle: Circle" style="html=1;whiteSpace=wrap;" parent="1" vertex="1">
          <mxGeometry x="340" y="310" width="160" height="40" as="geometry" />
        </mxCell>
        <mxCell id="dKJm6D22h-IE7gDkArMl-27" value="" style="endArrow=none;startArrow=none;endFill=0;startFill=0;endSize=8;html=1;verticalAlign=bottom;labelBackgroundColor=none;strokeWidth=3;rounded=0;entryX=0;entryY=0.5;entryDx=0;entryDy=0;exitX=1;exitY=0.5;exitDx=0;exitDy=0;" parent="1" source="dKJm6D22h-IE7gDkArMl-18" target="dKJm6D22h-IE7gDkArMl-26" edge="1">
          <mxGeometry width="160" relative="1" as="geometry">
            <mxPoint x="170" y="309.68" as="sourcePoint" />
            <mxPoint x="330" y="309.68" as="targetPoint" />
          </mxGeometry>
        </mxCell>
        <mxCell id="dKJm6D22h-IE7gDkArMl-28" value="Corresponding" style="edgeLabel;html=1;align=center;verticalAlign=middle;resizable=0;points=[];" parent="dKJm6D22h-IE7gDkArMl-27" vertex="1" connectable="0">
          <mxGeometry x="0.0048" y="-1" relative="1" as="geometry">
            <mxPoint as="offset" />
          </mxGeometry>
        </mxCell>
        <mxCell id="dKJm6D22h-IE7gDkArMl-43" value="" style="rounded=0;whiteSpace=wrap;html=1;" parent="1" vertex="1">
          <mxGeometry x="540" y="10" width="280" height="380" as="geometry" />
        </mxCell>
        <mxCell id="dKJm6D22h-IE7gDkArMl-42" value="&lt;h1 style=&quot;margin-top: 0px;&quot;&gt;BiDirectional&lt;br&gt;Same Uncertainty Propagation&lt;/h1&gt;&lt;p&gt;Legend: &lt;span style=&quot;white-space: pre;&quot;&gt;&#x9;&lt;/span&gt;&lt;span style=&quot;background-color: light-dark(rgb(0, 0, 0), rgb(0, 0, 255));&quot;&gt;Blue&lt;/span&gt; - Created Manually|&lt;br&gt;&lt;span style=&quot;white-space: pre;&quot;&gt;&#x9;&lt;/span&gt;&lt;span style=&quot;white-space: pre;&quot;&gt;&#x9;&lt;/span&gt;&lt;span style=&quot;background-color: rgb(128, 255, 0);&quot;&gt;&lt;font style=&quot;color: rgb(0, 0, 0);&quot;&gt;Green&lt;/font&gt;&lt;/span&gt; - Created by Reaction&lt;br&gt;&lt;/p&gt;&lt;p&gt;A brake disk and a corresponding circle are added. Two uncertainties will be added to the system.&amp;nbsp;&lt;br&gt;First an uncertainty is added to the circle. It is expected that this uncertainty propagates to the corresponding brake disk.&lt;br&gt;Second (propertywise same) uncertainty is added to the brake disk. It is expected that this uncertainty does not get created for the circle since it already exits.&lt;br&gt;&lt;br&gt;&lt;br&gt;&lt;br&gt;&lt;br&gt;&lt;/p&gt;" style="text;html=1;whiteSpace=wrap;overflow=hidden;rounded=0;" parent="1" vertex="1">
          <mxGeometry x="550" y="20" width="250" height="350" as="geometry" />
        </mxCell>
        <mxCell id="dKJm6D22h-IE7gDkArMl-49" value="Step 1: Uncertainty added to the circle, propagates to brake disk." style="rounded=0;whiteSpace=wrap;html=1;" parent="1" vertex="1">
          <mxGeometry x="20" y="10" width="260" height="40" as="geometry" />
        </mxCell>
        <mxCell id="kIRU0zJeqsqEs3SZj0UL-1" value="brakeDiskUncertaintyOne: Uncertainty" style="html=1;whiteSpace=wrap;fillColor=#60a917;fontColor=#ffffff;strokeColor=#2D7600;" parent="1" vertex="1">
          <mxGeometry x="20" y="450" width="160" height="60" as="geometry" />
        </mxCell>
        <mxCell id="kIRU0zJeqsqEs3SZj0UL-2" value="circleUncertaintyOne: Uncertainty" style="html=1;whiteSpace=wrap;fillColor=#0050ef;fontColor=#ffffff;strokeColor=#001DBC;" parent="1" vertex="1">
          <mxGeometry x="340" y="450" width="160" height="60" as="geometry" />
        </mxCell>
        <mxCell id="kIRU0zJeqsqEs3SZj0UL-3" value="" style="endArrow=none;startArrow=none;endFill=0;startFill=0;endSize=8;html=1;verticalAlign=bottom;labelBackgroundColor=none;strokeWidth=3;rounded=0;entryX=0;entryY=0.5;entryDx=0;entryDy=0;exitX=1;exitY=0.5;exitDx=0;exitDy=0;" parent="1" source="kIRU0zJeqsqEs3SZj0UL-1" target="kIRU0zJeqsqEs3SZj0UL-2" edge="1">
          <mxGeometry width="160" relative="1" as="geometry">
            <mxPoint x="200" y="480" as="sourcePoint" />
            <mxPoint x="320" y="484" as="targetPoint" />
          </mxGeometry>
        </mxCell>
        <mxCell id="kIRU0zJeqsqEs3SZj0UL-4" value="Corresponding" style="edgeLabel;html=1;align=center;verticalAlign=middle;resizable=0;points=[];" parent="kIRU0zJeqsqEs3SZj0UL-3" vertex="1" connectable="0">
          <mxGeometry x="0.0048" y="-1" relative="1" as="geometry">
            <mxPoint as="offset" />
          </mxGeometry>
        </mxCell>
        <mxCell id="kIRU0zJeqsqEs3SZj0UL-5" value="brakeDiskLocationOne: UncertaintyLocation" style="html=1;whiteSpace=wrap;fillColor=#60a917;fontColor=#ffffff;strokeColor=#2D7600;" parent="1" vertex="1">
          <mxGeometry x="20" y="570" width="160" height="60" as="geometry" />
        </mxCell>
        <mxCell id="kIRU0zJeqsqEs3SZj0UL-6" value="" style="endArrow=none;startArrow=none;endFill=0;startFill=0;endSize=8;html=1;verticalAlign=bottom;labelBackgroundColor=none;strokeWidth=3;rounded=0;exitX=0.5;exitY=1;exitDx=0;exitDy=0;entryX=0.5;entryY=0;entryDx=0;entryDy=0;" parent="1" source="kIRU0zJeqsqEs3SZj0UL-1" target="kIRU0zJeqsqEs3SZj0UL-5" edge="1">
          <mxGeometry width="160" relative="1" as="geometry">
            <mxPoint x="120" y="530" as="sourcePoint" />
            <mxPoint x="120" y="550" as="targetPoint" />
          </mxGeometry>
        </mxCell>
        <mxCell id="kIRU0zJeqsqEs3SZj0UL-7" value="uncertainty Location" style="edgeLabel;html=1;align=center;verticalAlign=middle;resizable=0;points=[];" parent="kIRU0zJeqsqEs3SZj0UL-6" vertex="1" connectable="0">
          <mxGeometry x="0.0048" y="-1" relative="1" as="geometry">
            <mxPoint as="offset" />
          </mxGeometry>
        </mxCell>
        <mxCell id="kIRU0zJeqsqEs3SZj0UL-8" value="circleLocationOne: UncertaintyLocation" style="html=1;whiteSpace=wrap;fillColor=#0050ef;fontColor=#ffffff;strokeColor=#001DBC;" parent="1" vertex="1">
          <mxGeometry x="340" y="570" width="160" height="60" as="geometry" />
        </mxCell>
        <mxCell id="kIRU0zJeqsqEs3SZj0UL-9" value="" style="endArrow=none;startArrow=none;endFill=0;startFill=0;endSize=8;html=1;verticalAlign=bottom;labelBackgroundColor=none;strokeWidth=3;rounded=0;exitX=0.5;exitY=1;exitDx=0;exitDy=0;entryX=0.5;entryY=0;entryDx=0;entryDy=0;" parent="1" source="kIRU0zJeqsqEs3SZj0UL-2" target="kIRU0zJeqsqEs3SZj0UL-8" edge="1">
          <mxGeometry width="160" relative="1" as="geometry">
            <mxPoint x="420" y="520" as="sourcePoint" />
            <mxPoint x="420" y="560" as="targetPoint" />
          </mxGeometry>
        </mxCell>
        <mxCell id="kIRU0zJeqsqEs3SZj0UL-10" value="uncertainty Location" style="edgeLabel;html=1;align=center;verticalAlign=middle;resizable=0;points=[];" parent="kIRU0zJeqsqEs3SZj0UL-9" vertex="1" connectable="0">
          <mxGeometry x="0.0048" y="-1" relative="1" as="geometry">
            <mxPoint as="offset" />
          </mxGeometry>
        </mxCell>
        <mxCell id="kIRU0zJeqsqEs3SZj0UL-11" value="brakeDisk: BrakeDisk" style="html=1;whiteSpace=wrap;" parent="1" vertex="1">
          <mxGeometry x="20" y="690" width="160" height="40" as="geometry" />
        </mxCell>
        <mxCell id="kIRU0zJeqsqEs3SZj0UL-12" value="" style="endArrow=none;startArrow=none;endFill=0;startFill=0;endSize=8;html=1;verticalAlign=bottom;labelBackgroundColor=none;strokeWidth=3;rounded=0;exitX=0.5;exitY=1;exitDx=0;exitDy=0;entryX=0.5;entryY=0;entryDx=0;entryDy=0;" parent="1" source="kIRU0zJeqsqEs3SZj0UL-5" target="kIRU0zJeqsqEs3SZj0UL-11" edge="1">
          <mxGeometry width="160" relative="1" as="geometry">
            <mxPoint x="140" y="630" as="sourcePoint" />
            <mxPoint x="140" y="690" as="targetPoint" />
            <Array as="points">
              <mxPoint x="100" y="680" />
            </Array>
          </mxGeometry>
        </mxCell>
        <mxCell id="kIRU0zJeqsqEs3SZj0UL-13" value="referencedComponents" style="edgeLabel;html=1;align=center;verticalAlign=middle;resizable=0;points=[];" parent="kIRU0zJeqsqEs3SZj0UL-12" vertex="1" connectable="0">
          <mxGeometry x="0.0048" y="-1" relative="1" as="geometry">
            <mxPoint x="1" as="offset" />
          </mxGeometry>
        </mxCell>
        <mxCell id="kIRU0zJeqsqEs3SZj0UL-14" value="" style="endArrow=none;startArrow=none;endFill=0;startFill=0;endSize=8;html=1;verticalAlign=bottom;labelBackgroundColor=none;strokeWidth=3;rounded=0;exitX=0.5;exitY=1;exitDx=0;exitDy=0;entryX=0.5;entryY=0;entryDx=0;entryDy=0;" parent="1" source="kIRU0zJeqsqEs3SZj0UL-8" target="kIRU0zJeqsqEs3SZj0UL-16" edge="1">
          <mxGeometry width="160" relative="1" as="geometry">
            <mxPoint x="420" y="640" as="sourcePoint" />
            <mxPoint x="420" y="670" as="targetPoint" />
            <Array as="points">
              <mxPoint x="419.81" y="680" />
            </Array>
          </mxGeometry>
        </mxCell>
        <mxCell id="kIRU0zJeqsqEs3SZj0UL-15" value="referencedComponents" style="edgeLabel;html=1;align=center;verticalAlign=middle;resizable=0;points=[];" parent="kIRU0zJeqsqEs3SZj0UL-14" vertex="1" connectable="0">
          <mxGeometry x="0.0048" y="-1" relative="1" as="geometry">
            <mxPoint x="1" as="offset" />
          </mxGeometry>
        </mxCell>
        <mxCell id="kIRU0zJeqsqEs3SZj0UL-16" value="circle: Circle" style="html=1;whiteSpace=wrap;" parent="1" vertex="1">
          <mxGeometry x="340" y="690" width="160" height="40" as="geometry" />
        </mxCell>
        <mxCell id="kIRU0zJeqsqEs3SZj0UL-17" value="" style="endArrow=none;startArrow=none;endFill=0;startFill=0;endSize=8;html=1;verticalAlign=bottom;labelBackgroundColor=none;strokeWidth=3;rounded=0;entryX=0;entryY=0.5;entryDx=0;entryDy=0;exitX=1;exitY=0.5;exitDx=0;exitDy=0;" parent="1" source="kIRU0zJeqsqEs3SZj0UL-11" target="kIRU0zJeqsqEs3SZj0UL-16" edge="1">
          <mxGeometry width="160" relative="1" as="geometry">
            <mxPoint x="170" y="689.6800000000001" as="sourcePoint" />
            <mxPoint x="330" y="689.6800000000001" as="targetPoint" />
          </mxGeometry>
        </mxCell>
        <mxCell id="kIRU0zJeqsqEs3SZj0UL-18" value="Corresponding" style="edgeLabel;html=1;align=center;verticalAlign=middle;resizable=0;points=[];" parent="kIRU0zJeqsqEs3SZj0UL-17" vertex="1" connectable="0">
          <mxGeometry x="0.0048" y="-1" relative="1" as="geometry">
            <mxPoint as="offset" />
          </mxGeometry>
        </mxCell>
        <mxCell id="kIRU0zJeqsqEs3SZj0UL-19" value="brakeDiskLocationTwo: UncertaintyLocation" style="html=1;whiteSpace=wrap;fillColor=#0050ef;fontColor=#ffffff;strokeColor=#001DBC;" parent="1" vertex="1">
          <mxGeometry x="20" y="790" width="160" height="60" as="geometry" />
        </mxCell>
        <mxCell id="kIRU0zJeqsqEs3SZj0UL-20" value="brakeDiskUncertaintyTwo: Uncertainty" style="html=1;whiteSpace=wrap;fillColor=#0050ef;fontColor=#ffffff;strokeColor=#001DBC;" parent="1" vertex="1">
          <mxGeometry x="20" y="910" width="160" height="60" as="geometry" />
        </mxCell>
        <mxCell id="kIRU0zJeqsqEs3SZj0UL-21" value="" style="endArrow=none;startArrow=none;endFill=0;startFill=0;endSize=8;html=1;verticalAlign=bottom;labelBackgroundColor=none;strokeWidth=3;rounded=0;entryX=0.5;entryY=0;entryDx=0;entryDy=0;exitX=0.5;exitY=1;exitDx=0;exitDy=0;" parent="1" source="kIRU0zJeqsqEs3SZj0UL-19" target="kIRU0zJeqsqEs3SZj0UL-20" edge="1">
          <mxGeometry width="160" relative="1" as="geometry">
            <mxPoint x="120" y="860" as="sourcePoint" />
            <mxPoint x="120" y="790" as="targetPoint" />
          </mxGeometry>
        </mxCell>
        <mxCell id="kIRU0zJeqsqEs3SZj0UL-22" value="uncertainty Location" style="edgeLabel;html=1;align=center;verticalAlign=middle;resizable=0;points=[];" parent="kIRU0zJeqsqEs3SZj0UL-21" vertex="1" connectable="0">
          <mxGeometry x="0.0048" y="-1" relative="1" as="geometry">
            <mxPoint as="offset" />
          </mxGeometry>
        </mxCell>
        <mxCell id="kIRU0zJeqsqEs3SZj0UL-23" value="" style="endArrow=none;startArrow=none;endFill=0;startFill=0;endSize=8;html=1;verticalAlign=bottom;labelBackgroundColor=none;strokeWidth=3;rounded=0;exitX=0.5;exitY=1;exitDx=0;exitDy=0;entryX=0.5;entryY=0;entryDx=0;entryDy=0;" parent="1" source="kIRU0zJeqsqEs3SZj0UL-11" target="kIRU0zJeqsqEs3SZj0UL-19" edge="1">
          <mxGeometry width="160" relative="1" as="geometry">
            <mxPoint x="200" y="730" as="sourcePoint" />
            <mxPoint x="120" y="770" as="targetPoint" />
            <Array as="points">
              <mxPoint x="100" y="760" />
            </Array>
          </mxGeometry>
        </mxCell>
        <mxCell id="kIRU0zJeqsqEs3SZj0UL-24" value="referencedComponents" style="edgeLabel;html=1;align=center;verticalAlign=middle;resizable=0;points=[];" parent="kIRU0zJeqsqEs3SZj0UL-23" vertex="1" connectable="0">
          <mxGeometry x="0.0048" y="-1" relative="1" as="geometry">
            <mxPoint x="1" as="offset" />
          </mxGeometry>
        </mxCell>
        <mxCell id="kIRU0zJeqsqEs3SZj0UL-33" value="Step 2:&amp;nbsp; Uncertainty added to the brake disk, same uncertainty does not get created again" style="rounded=0;whiteSpace=wrap;html=1;" parent="1" vertex="1">
          <mxGeometry x="20" y="390" width="260" height="40" as="geometry" />
        </mxCell>
      </root>
    </mxGraphModel>
  </diagram>
</mxfile>
